<?xml version="1.0" encoding="UTF-8"?>
<svg id="Layer_1" xmlns="http://www.w3.org/2000/svg" version="1.1" viewBox="0 0 262.85 114.89">
  <!-- Generator: Adobe Illustrator 30.2.1, SVG Export Plug-In . SVG Version: 2.1.1 Build 1)  -->
  <defs>
    <style>
      .st0 {
        fill: #fff;
      }
    </style>
  </defs>
  <g>
    <path class="st0" d="M61.19,21.5l-3.26,24.36-3.17,22.5c-3.97.33-7.94.7-11.9,1.07l4.36-26.84c-3.7,7.89-6.08,15.8-9.26,23.81l-7.82.6-1.65-21.78c-.08-.98-.23-1.78-.6-3.02l-4.05,29.28v.04l-11.94,1.51-.15.02,8.04-49.04,15.49-.95.6,9.69c.25,4.32.31,8.63,1.06,13.08l8.57-22.45c.13-.34.09-.85.09-.97,0-.18.49-.07.81-.09l14.79-.82s0,0-.01,0Z"/>
    <polygon class="st0" points="115.59 64.95 104.31 65.41 101.05 52.94 99.27 55.14 97.7 65.4 87.1 65.92 93.85 20.75 104.54 19.92 101.37 42.05 108.5 30.91 119.79 31.07 109.29 46.15 115.59 64.95"/>
    <path class="st0" d="M232.18,82.42c7.74.43,14.2-1.92,16.19-9.96,1.17-4.74,1.99-9.33,2.68-14.2l3.36-23.69-10.29-.09-.63,3.28c-1.16-2.47-2.9-4.04-5.53-4.26-7.46-.64-11.79,6.94-13.42,13.27-1.58,6.1-2.52,17.03,3.98,20.49,3.64,1.93,7.32.53,10.5-2.12-.13,1.77-.77,3.12-1.12,4.6-.82,3.53-9.93,3.56-13.47,3.44-1.18-.04-117.6-4.17-212.52,8.67l-3.47,14.85c96.22-20.24,223.75-14.27,223.75-14.27h0ZM240.46,55.66c-.38,1.29-1.24,2.55-2.52,3.28-.7.4-2.14.32-2.7-.07-.49-.35-1.01-1.24-1.12-2.06-.59-4.22.29-8.57,2.34-12.24.73-1.3,2.12-1.81,3.28-1.56,1.36.3,2.2,1.53,2.19,3.06,0,3.23-.56,6.45-1.48,9.59h0Z"/>
    <path class="st0" d="M210.24,30.83c.76-5.05-.43-8.55-5.05-10.96-6.35-2.6-16.43-1.48-23.29-1.16l-6.52,44.84,15.91.03c3.2,0,6.25-.61,9.14-1.54,7.18-2.64,10.04-9.51,8.35-16.82-1.01-2.82-3-4.33-5.99-5.69,4.09-1.44,6.82-4.52,7.45-8.71h0ZM194.89,53.3c-2.11,1.07-4.31,1.06-6.47.96l1.42-9.71c1.8-.44,4.67-.7,6.4.77,2.4,2.05,1.48,6.52-1.34,7.96h0v.02h0ZM196.49,35.43c-1.82,1.04-3.64,1.01-5.65.76l1.35-8.76c1.92-.22,4.36-.48,5.82,1.11,1.79,1.95.78,5.59-1.5,6.9h-.02Z"/>
    <path class="st0" d="M79.48,32.21l-.59,3.02c-1.44-1.84-2.41-3.16-4.6-3.5-12.15-1.87-18.15,18.71-14.95,29.84.7,2.42,2.11,4.44,4.26,5.38,4.16,1.84,8.51.3,11.2-3.36l-.1,3.12,10.08-.6,4.9-34.45-10.2.54h0ZM75.7,54.3c-.63,1.78-2.38,4.33-4.41,3.9-2.59-.55-2.2-5.66-1.89-7.76.42-2.9,2-10.55,6.07-9.25,3.39,1.08,1.24,10.32.23,13.11Z"/>
    <path class="st0" d="M173.11,62.81c-4.84,1.02-12.66,2.06-14.36-3.96-.61-2.16-.44-4.39-.1-6.6l2.13-13.7-3.08-.12,1.12-8.4,3.14-.02,1.27-8.36,7.22-.45,3.47-.28-1.34,8.84h5.46l-1.56,8.37-5.07.24-2.08,13.8c-.07.43.27,1.4.51,1.76.28.42,1.35.85,1.89.76l2.92-.46-1.54,8.57h0Z"/>
    <polygon class="st0" points="152.34 63.75 141 64.07 147.57 19.09 158.84 18.77 156.96 32.19 152.34 63.75"/>
    <path class="st0" d="M140.86,49.62c1.39-6.46,2.29-15.2-3.71-19.46-2.66-1.49-5.67-1.75-8.82-1.29-11.42,1.64-15.1,17.21-13.09,26.64,1.17,5.51,5.7,8.88,11.12,8.92,4.64.03,9.2-1.34,12.64-4.43l-3.73-6.8c-1.86,1.37-3.83,2.24-5.98,2.66-1.82.1-3.58-.69-4.16-2.52-.33-1.07-.38-2.27-.29-3.56l16.01-.18h0v.02h0ZM130.73,36.79c2.28.49,2.24,4.2,1.86,6.34l-6.79-.09c.27-2.71,2.11-6.85,4.93-6.25Z"/>
    <polygon class="st0" points="219.62 64.07 209.01 64.01 213.91 30.92 224.49 30.87 219.62 64.07"/>
  </g>
  <path class="st0" d="M224.36,28.29l-9.7.05c.53-2.49.87-4.98,1.12-7.6l9.85-.35-1.27,7.91h0Z"/>
</svg>